<mxfile host="app.diagrams.net" modified="2024-03-14T18:05:40.044Z" agent="Mozilla/5.0 (Windows NT 10.0; Win64; x64; rv:123.0) Gecko/20100101 Firefox/123.0" etag="dTq39W3XeFNU7cs1Iti_" version="24.0.2" type="device">
  <diagram name="Seite-1" id="sVORhRUODlhrz3PP94mE">
    <mxGraphModel dx="2864" dy="768" grid="1" gridSize="10" guides="1" tooltips="1" connect="1" arrows="1" fold="1" page="1" pageScale="1" pageWidth="827" pageHeight="1169" math="0" shadow="0">
      <root>
        <mxCell id="0" />
        <mxCell id="1" parent="0" />
        <mxCell id="VL2rxZvJgabxmDF5evkh-22" style="edgeStyle=orthogonalEdgeStyle;rounded=0;orthogonalLoop=1;jettySize=auto;html=1;entryX=0.5;entryY=0;entryDx=0;entryDy=0;exitX=0.5;exitY=1;exitDx=0;exitDy=0;" edge="1" parent="1" source="VL2rxZvJgabxmDF5evkh-1" target="VL2rxZvJgabxmDF5evkh-11">
          <mxGeometry relative="1" as="geometry">
            <mxPoint x="377" y="410" as="sourcePoint" />
            <mxPoint x="350" y="555" as="targetPoint" />
          </mxGeometry>
        </mxCell>
        <mxCell id="VL2rxZvJgabxmDF5evkh-1" value="&lt;div&gt;/create_bifröst&lt;/div&gt;&lt;div&gt;/insert_server&lt;/div&gt;&lt;div&gt;/recovery&lt;/div&gt;&lt;div&gt;/servers&lt;br&gt;&lt;/div&gt;" style="shape=internalStorage;whiteSpace=wrap;html=1;backgroundOutline=1;" vertex="1" parent="1">
          <mxGeometry x="299" y="265" width="161" height="120" as="geometry" />
        </mxCell>
        <mxCell id="VL2rxZvJgabxmDF5evkh-2" value="Yggdrasil" style="text;html=1;align=center;verticalAlign=middle;resizable=0;points=[];autosize=1;strokeColor=none;fillColor=none;" vertex="1" parent="1">
          <mxGeometry x="339.5" y="235" width="80" height="30" as="geometry" />
        </mxCell>
        <mxCell id="VL2rxZvJgabxmDF5evkh-3" value="&lt;div&gt;Rules:&lt;/div&gt;&lt;div&gt;aasdasdasd&lt;/div&gt;&lt;div&gt;adsasdasd&lt;/div&gt;&lt;div&gt;asdasdasd&lt;/div&gt;&lt;div&gt;&lt;br&gt;&lt;/div&gt;&lt;div&gt;&lt;br&gt;&lt;/div&gt;&lt;div&gt;&lt;br&gt;&lt;/div&gt;" style="shape=internalStorage;whiteSpace=wrap;html=1;backgroundOutline=1;" vertex="1" parent="1">
          <mxGeometry x="570" y="230" width="150" height="190" as="geometry" />
        </mxCell>
        <mxCell id="VL2rxZvJgabxmDF5evkh-4" value="Bifröst" style="text;html=1;align=center;verticalAlign=middle;resizable=0;points=[];autosize=1;strokeColor=none;fillColor=none;" vertex="1" parent="1">
          <mxGeometry x="615" y="198" width="60" height="30" as="geometry" />
        </mxCell>
        <mxCell id="VL2rxZvJgabxmDF5evkh-5" value="" style="endArrow=classic;html=1;rounded=0;entryX=0;entryY=0.5;entryDx=0;entryDy=0;" edge="1" parent="1" source="VL2rxZvJgabxmDF5evkh-1" target="VL2rxZvJgabxmDF5evkh-3">
          <mxGeometry width="50" height="50" relative="1" as="geometry">
            <mxPoint x="400" y="240" as="sourcePoint" />
            <mxPoint x="170" y="330" as="targetPoint" />
          </mxGeometry>
        </mxCell>
        <mxCell id="VL2rxZvJgabxmDF5evkh-20" style="rounded=0;orthogonalLoop=1;jettySize=auto;html=1;dashed=1;endArrow=none;endFill=0;" edge="1" parent="1" source="VL2rxZvJgabxmDF5evkh-6" target="VL2rxZvJgabxmDF5evkh-18">
          <mxGeometry relative="1" as="geometry" />
        </mxCell>
        <mxCell id="VL2rxZvJgabxmDF5evkh-6" value="&lt;div&gt;Create Bifröst&lt;/div&gt;&lt;div&gt;Erstellt den Server Bifröst samt Channel Midgard.&lt;/div&gt;&lt;div&gt;Erstellt Rolle für User mit Button klick Berechtigung&lt;br&gt;&lt;/div&gt;&lt;div&gt;Erstellt Invite Link und trägt ID, Name und Invite Link in DB&lt;/div&gt;&lt;div&gt;Erstellt in Channel Midgard eine Nachricht mit Regeln, Dropdown Liste und Button.&lt;br&gt;&lt;/div&gt;" style="shape=note;whiteSpace=wrap;html=1;backgroundOutline=1;darkOpacity=0.05;" vertex="1" parent="1">
          <mxGeometry x="245" y="40" width="370" height="158" as="geometry" />
        </mxCell>
        <mxCell id="VL2rxZvJgabxmDF5evkh-7" value="&lt;div&gt;Event:&lt;/div&gt;&lt;div&gt;User Joined bekommt Rolle&lt;/div&gt;&lt;div&gt;Wenn User den Button drückt wird die Rolle entzogen.&lt;/div&gt;&lt;div&gt;&lt;br&gt;&lt;/div&gt;&lt;div&gt;Bot sendet Informationen nach Klick und Modal an Admin Server&lt;br&gt;&lt;/div&gt;" style="shape=note;whiteSpace=wrap;html=1;backgroundOutline=1;darkOpacity=0.05;" vertex="1" parent="1">
          <mxGeometry x="650" y="40" width="370" height="158" as="geometry" />
        </mxCell>
        <mxCell id="VL2rxZvJgabxmDF5evkh-8" value="Servers" style="rounded=1;whiteSpace=wrap;html=1;" vertex="1" parent="1">
          <mxGeometry x="600" y="340" width="110" height="20" as="geometry" />
        </mxCell>
        <mxCell id="VL2rxZvJgabxmDF5evkh-9" value="Invite" style="rounded=1;whiteSpace=wrap;html=1;" vertex="1" parent="1">
          <mxGeometry x="600" y="370" width="70" height="20" as="geometry" />
        </mxCell>
        <mxCell id="VL2rxZvJgabxmDF5evkh-10" value="" style="shape=flexArrow;endArrow=classic;html=1;rounded=0;endWidth=4.666666666666667;endSize=1.7766666666666666;" edge="1" parent="1">
          <mxGeometry width="50" height="50" relative="1" as="geometry">
            <mxPoint x="698" y="346" as="sourcePoint" />
            <mxPoint x="698" y="356" as="targetPoint" />
          </mxGeometry>
        </mxCell>
        <mxCell id="VL2rxZvJgabxmDF5evkh-11" value="DB" style="shape=datastore;whiteSpace=wrap;html=1;" vertex="1" parent="1">
          <mxGeometry x="349.5" y="430" width="60" height="60" as="geometry" />
        </mxCell>
        <mxCell id="VL2rxZvJgabxmDF5evkh-13" style="edgeStyle=orthogonalEdgeStyle;rounded=0;orthogonalLoop=1;jettySize=auto;html=1;" edge="1" parent="1" source="VL2rxZvJgabxmDF5evkh-12" target="VL2rxZvJgabxmDF5evkh-3">
          <mxGeometry relative="1" as="geometry" />
        </mxCell>
        <mxCell id="VL2rxZvJgabxmDF5evkh-37" style="edgeStyle=orthogonalEdgeStyle;rounded=0;orthogonalLoop=1;jettySize=auto;html=1;" edge="1" parent="1" source="VL2rxZvJgabxmDF5evkh-12" target="VL2rxZvJgabxmDF5evkh-35">
          <mxGeometry relative="1" as="geometry" />
        </mxCell>
        <mxCell id="VL2rxZvJgabxmDF5evkh-12" value="User" style="shape=umlActor;verticalLabelPosition=bottom;verticalAlign=top;html=1;outlineConnect=0;" vertex="1" parent="1">
          <mxGeometry x="780" y="295" width="30" height="60" as="geometry" />
        </mxCell>
        <mxCell id="VL2rxZvJgabxmDF5evkh-15" style="edgeStyle=orthogonalEdgeStyle;rounded=0;orthogonalLoop=1;jettySize=auto;html=1;entryX=0;entryY=0.5;entryDx=0;entryDy=0;" edge="1" parent="1" source="VL2rxZvJgabxmDF5evkh-14" target="VL2rxZvJgabxmDF5evkh-1">
          <mxGeometry relative="1" as="geometry" />
        </mxCell>
        <mxCell id="VL2rxZvJgabxmDF5evkh-14" value="Admin" style="shape=umlActor;verticalLabelPosition=bottom;verticalAlign=top;html=1;outlineConnect=0;" vertex="1" parent="1">
          <mxGeometry x="160" y="295" width="30" height="60" as="geometry" />
        </mxCell>
        <mxCell id="VL2rxZvJgabxmDF5evkh-18" value="Create Server" style="text;html=1;align=center;verticalAlign=middle;resizable=0;points=[];autosize=1;strokeColor=none;fillColor=none;" vertex="1" parent="1">
          <mxGeometry x="470" y="295" width="100" height="30" as="geometry" />
        </mxCell>
        <mxCell id="VL2rxZvJgabxmDF5evkh-19" value="Slash Command" style="text;html=1;align=center;verticalAlign=middle;resizable=0;points=[];autosize=1;strokeColor=none;fillColor=none;" vertex="1" parent="1">
          <mxGeometry x="182" y="297" width="120" height="30" as="geometry" />
        </mxCell>
        <mxCell id="VL2rxZvJgabxmDF5evkh-21" style="rounded=0;orthogonalLoop=1;jettySize=auto;html=1;entryX=1.011;entryY=0.288;entryDx=0;entryDy=0;entryPerimeter=0;dashed=1;endArrow=none;endFill=0;" edge="1" parent="1" source="VL2rxZvJgabxmDF5evkh-7" target="VL2rxZvJgabxmDF5evkh-3">
          <mxGeometry relative="1" as="geometry" />
        </mxCell>
        <mxCell id="VL2rxZvJgabxmDF5evkh-24" value="&lt;div&gt;Insert Server&lt;/div&gt;&lt;div&gt;Eintragen des Invite Links&lt;/div&gt;&lt;div&gt;Bot wird dem neuen Server hinzugefügt.&lt;/div&gt;&lt;div&gt;Guild ID, Name und neu erzeugter Invite Link wir der DB hinzugefügt.&lt;br&gt;&lt;/div&gt;" style="shape=note;whiteSpace=wrap;html=1;backgroundOutline=1;darkOpacity=0.05;" vertex="1" parent="1">
          <mxGeometry x="-10" y="120" width="218" height="100" as="geometry" />
        </mxCell>
        <mxCell id="VL2rxZvJgabxmDF5evkh-25" value="&lt;div&gt;Recovery&lt;/div&gt;&lt;div&gt;Check ob Server der Recoverd werden soll existiert, wenn nicht erstellen eines Backup Server, erstellen von Channels und hinzufügen von Nachrichten.&lt;br&gt;&lt;/div&gt;" style="shape=note;whiteSpace=wrap;html=1;backgroundOutline=1;darkOpacity=0.05;" vertex="1" parent="1">
          <mxGeometry x="-120" y="275" width="218" height="100" as="geometry" />
        </mxCell>
        <mxCell id="VL2rxZvJgabxmDF5evkh-33" style="rounded=0;orthogonalLoop=1;jettySize=auto;html=1;dashed=1;endArrow=none;endFill=0;" edge="1" parent="1" source="VL2rxZvJgabxmDF5evkh-26">
          <mxGeometry relative="1" as="geometry">
            <mxPoint x="240" y="320" as="targetPoint" />
          </mxGeometry>
        </mxCell>
        <mxCell id="VL2rxZvJgabxmDF5evkh-26" value="&lt;div&gt;Servers&lt;/div&gt;&lt;div&gt;Zeigt eine Liste von Discord Servern samt Invite Links als Embed an.&lt;br&gt;&lt;/div&gt;" style="shape=note;whiteSpace=wrap;html=1;backgroundOutline=1;darkOpacity=0.05;" vertex="1" parent="1">
          <mxGeometry x="-58" y="440" width="218" height="100" as="geometry" />
        </mxCell>
        <mxCell id="VL2rxZvJgabxmDF5evkh-28" style="edgeStyle=orthogonalEdgeStyle;rounded=0;orthogonalLoop=1;jettySize=auto;html=1;" edge="1" parent="1" source="VL2rxZvJgabxmDF5evkh-27" target="VL2rxZvJgabxmDF5evkh-12">
          <mxGeometry relative="1" as="geometry" />
        </mxCell>
        <mxCell id="VL2rxZvJgabxmDF5evkh-49" style="rounded=0;orthogonalLoop=1;jettySize=auto;html=1;entryX=0.25;entryY=1;entryDx=0;entryDy=0;dashed=1;endArrow=none;endFill=0;" edge="1" parent="1" source="VL2rxZvJgabxmDF5evkh-27" target="VL2rxZvJgabxmDF5evkh-1">
          <mxGeometry relative="1" as="geometry" />
        </mxCell>
        <mxCell id="VL2rxZvJgabxmDF5evkh-27" value="&lt;div&gt;Event:&lt;/div&gt;&lt;div&gt;Wenn Admin Invite Accept/Decline&lt;br&gt;&lt;/div&gt;" style="shape=note;whiteSpace=wrap;html=1;backgroundOutline=1;darkOpacity=0.05;" vertex="1" parent="1">
          <mxGeometry x="180" y="550" width="225" height="80" as="geometry" />
        </mxCell>
        <mxCell id="VL2rxZvJgabxmDF5evkh-29" value="&lt;br&gt;&lt;div&gt;Decline:&lt;/div&gt;Admin füllt Begründung aus und sendet damit eine Nachricht an den User.&lt;br&gt;&lt;br&gt;User wird von Bifröst gekickt." style="shape=note;whiteSpace=wrap;html=1;backgroundOutline=1;darkOpacity=0.05;" vertex="1" parent="1">
          <mxGeometry x="470" y="610" width="225" height="110" as="geometry" />
        </mxCell>
        <mxCell id="VL2rxZvJgabxmDF5evkh-30" value="&lt;div&gt;Accept:&lt;/div&gt;&lt;div&gt;User bekommt Nachricht und Invite Link für bestätigte Server&lt;/div&gt;&lt;div&gt;&lt;br&gt;&lt;/div&gt;&lt;div&gt;User wird von Bifröst gekickt.&lt;/div&gt;" style="shape=note;whiteSpace=wrap;html=1;backgroundOutline=1;darkOpacity=0.05;" vertex="1" parent="1">
          <mxGeometry x="470" y="460" width="225" height="110" as="geometry" />
        </mxCell>
        <mxCell id="VL2rxZvJgabxmDF5evkh-31" style="rounded=0;orthogonalLoop=1;jettySize=auto;html=1;entryX=0.474;entryY=1.029;entryDx=0;entryDy=0;entryPerimeter=0;dashed=1;endArrow=none;endFill=0;" edge="1" parent="1" source="VL2rxZvJgabxmDF5evkh-24" target="VL2rxZvJgabxmDF5evkh-19">
          <mxGeometry relative="1" as="geometry" />
        </mxCell>
        <mxCell id="VL2rxZvJgabxmDF5evkh-32" style="rounded=0;orthogonalLoop=1;jettySize=auto;html=1;entryX=0.485;entryY=0.983;entryDx=0;entryDy=0;entryPerimeter=0;endArrow=none;endFill=0;dashed=1;" edge="1" parent="1" source="VL2rxZvJgabxmDF5evkh-25" target="VL2rxZvJgabxmDF5evkh-19">
          <mxGeometry relative="1" as="geometry" />
        </mxCell>
        <mxCell id="VL2rxZvJgabxmDF5evkh-35" value="" style="shape=internalStorage;whiteSpace=wrap;html=1;backgroundOutline=1;" vertex="1" parent="1">
          <mxGeometry x="920" y="247.5" width="210" height="155" as="geometry" />
        </mxCell>
        <mxCell id="VL2rxZvJgabxmDF5evkh-36" value="Server X" style="text;html=1;align=center;verticalAlign=middle;resizable=0;points=[];autosize=1;strokeColor=none;fillColor=none;" vertex="1" parent="1">
          <mxGeometry x="990" y="217.5" width="70" height="30" as="geometry" />
        </mxCell>
        <mxCell id="VL2rxZvJgabxmDF5evkh-38" value="Accept" style="text;html=1;align=center;verticalAlign=middle;resizable=0;points=[];autosize=1;strokeColor=none;fillColor=none;" vertex="1" parent="1">
          <mxGeometry x="850" y="295" width="60" height="30" as="geometry" />
        </mxCell>
        <mxCell id="VL2rxZvJgabxmDF5evkh-41" style="edgeStyle=orthogonalEdgeStyle;rounded=0;orthogonalLoop=1;jettySize=auto;html=1;entryX=1;entryY=0.5;entryDx=0;entryDy=0;" edge="1" parent="1" source="VL2rxZvJgabxmDF5evkh-40" target="VL2rxZvJgabxmDF5evkh-35">
          <mxGeometry relative="1" as="geometry" />
        </mxCell>
        <mxCell id="VL2rxZvJgabxmDF5evkh-40" value="Admin" style="shape=umlActor;verticalLabelPosition=bottom;verticalAlign=top;html=1;outlineConnect=0;" vertex="1" parent="1">
          <mxGeometry x="1268" y="295" width="30" height="60" as="geometry" />
        </mxCell>
        <mxCell id="VL2rxZvJgabxmDF5evkh-48" style="edgeStyle=orthogonalEdgeStyle;rounded=0;orthogonalLoop=1;jettySize=auto;html=1;endArrow=none;endFill=0;dashed=1;" edge="1" parent="1" source="VL2rxZvJgabxmDF5evkh-42" target="VL2rxZvJgabxmDF5evkh-47">
          <mxGeometry relative="1" as="geometry" />
        </mxCell>
        <mxCell id="VL2rxZvJgabxmDF5evkh-42" value="&lt;div&gt;Backup:&lt;/div&gt;&lt;div&gt;Schaltet Backup für Channel X aus oder an und trägt diesen in die DB&lt;br&gt;&lt;/div&gt;" style="shape=note;whiteSpace=wrap;html=1;backgroundOutline=1;darkOpacity=0.05;" vertex="1" parent="1">
          <mxGeometry x="1091" y="430" width="218" height="100" as="geometry" />
        </mxCell>
        <mxCell id="VL2rxZvJgabxmDF5evkh-47" value="Slash Command" style="text;html=1;align=center;verticalAlign=middle;resizable=0;points=[];autosize=1;strokeColor=none;fillColor=none;" vertex="1" parent="1">
          <mxGeometry x="1140" y="295" width="120" height="30" as="geometry" />
        </mxCell>
      </root>
    </mxGraphModel>
  </diagram>
</mxfile>
